<?xml version="1.0" encoding="UTF-8" standalone="no"?>
<svg
   xmlns:dc="http://purl.org/dc/elements/1.1/"
   xmlns:cc="http://creativecommons.org/ns#"
   xmlns:rdf="http://www.w3.org/1999/02/22-rdf-syntax-ns#"
   xmlns:svg="http://www.w3.org/2000/svg"
   xmlns="http://www.w3.org/2000/svg"
   xmlns:xlink="http://www.w3.org/1999/xlink"
   xmlns:sodipodi="http://sodipodi.sourceforge.net/DTD/sodipodi-0.dtd"
   xmlns:inkscape="http://www.inkscape.org/namespaces/inkscape"
   version="1.1"
   x="0px"
   y="0px"
   width="176"
   height="150"
   viewBox="0 0 176 149.99999"
   id="svg58"
   sodipodi:docname="house.svg"
   inkscape:version="1.0.2-2 (e86c870879, 2021-01-15)">
  <metadata
     id="metadata64">
    <rdf:RDF>
      <cc:Work
         rdf:about="">
        <dc:format>image/svg+xml</dc:format>
        <dc:type
           rdf:resource="http://purl.org/dc/dcmitype/StillImage" />
        <dc:title></dc:title>
      </cc:Work>
    </rdf:RDF>
  </metadata>
  <defs
     id="defs62">
    <filter
       inkscape:collect="always"
       style="color-interpolation-filters:sRGB"
       id="filter1233"
       x="-0.0017213041"
       width="1.0034426"
       y="-0.001961207"
       height="1.0039223">
      <feGaussianBlur
         inkscape:collect="always"
         stdDeviation="0.20878613"
         id="feGaussianBlur1235" />
    </filter>
  </defs>
  <sodipodi:namedview
     pagecolor="#ffffff"
     bordercolor="#666666"
     borderopacity="1"
     objecttolerance="10"
     gridtolerance="10"
     guidetolerance="10"
     inkscape:pageopacity="0"
     inkscape:pageshadow="2"
     inkscape:window-width="1920"
     inkscape:window-height="1001"
     id="namedview60"
     showgrid="false"
     inkscape:zoom="0.55137521"
     inkscape:cx="793.7852"
     inkscape:cy="420.53507"
     inkscape:window-x="-9"
     inkscape:window-y="-9"
     inkscape:window-maximized="1"
     inkscape:current-layer="svg58"
     inkscape:document-rotation="0" />
  <g
     id="g1694"
     transform="matrix(0.62342815,0,0,0.62212815,-1813.3128,-200.35316)">
    <g
       id="Capa_1"
       transform="translate(2226.1566,-23.468412)">
      <g
         id="XMLID_6_">
        <path
           id="XMLID_262_"
           d="m 829.3,288.8 c 1.4,-5.4 2.8,-10.9 4.1,-16.3 0.4,-1.5 1,-2.5 2.5,-3.2 12.3,-6.1 24.5,-12.3 36.8,-18.4 3.8,-1.9 7.7,-3.8 11.4,-5.8 1.4,-0.8 2.3,-0.4 3.2,0.8 7.1,9.2 14.1,18.5 21.2,27.7 2.9,3.7 5.6,7.6 8.8,11.2 1.6,1.8 3,3.9 4.2,6.1 0.5,0.9 0.3,1.8 0,2.7 -3.1,11.7 -6.1,23.3 -9.2,35 -1.1,4.2 -5.5,6.6 -10.7,5.5 -8.7,-1.9 -17.4,-4.3 -26.1,-6.4 -1.9,-0.5 -1.6,-1.7 -1.3,-3.1 1.8,-7.3 3.7,-14.6 5.5,-21.9 1.6,-6.2 -0.1,-9.1 -6.3,-10.8 -3.7,-1 -7.5,-1.9 -11.2,-2.8 -4.5,-1 -8,1.1 -9.2,5.5 -2,7.6 -3.9,15.2 -5.8,22.9 -0.5,2.2 -1.5,2.8 -3.7,2.2 -3.9,-1.2 -7.9,-2 -11.9,-3.1 -4.9,-1.3 -7.7,-5.9 -6.5,-10.8 1.4,-5.8 2.9,-11.4 4.2,-17 0.1,0 0,0 0,0 z" />
        <path
           id="XMLID_254_"
           d="m 907.1,233.4 c 0.6,-2.2 0.9,-3.9 1.4,-5.6 1.4,-5.1 5.2,-7.4 10.3,-6.2 2.5,0.6 5.1,1.2 7.5,1.9 4.9,1.4 7,5.1 5.8,10 -1.9,7.7 -3.8,15.4 -5.9,23.1 -0.6,2.1 -0.2,3.7 1,5.3 4.1,5.7 8.2,11.4 12.3,17.1 1.5,2.1 3.3,4.2 1.7,7 -1.7,3 -4.3,1.5 -6.5,1.2 -3.1,-0.4 -6.1,-1.3 -9.1,-1.9 -1.1,-0.2 -1.8,-0.8 -2.4,-1.7 -4.5,-6 -9.1,-12 -13.7,-18 -7,-9.2 -14.1,-18.3 -21,-27.4 -0.8,-1.1 -1.4,-1.4 -2.9,-0.7 -16,8.1 -32.1,16.1 -48.2,24.2 -1,0.5 -2,0.7 -3.1,0.4 -3.9,-1.1 -7.9,-2.1 -11.9,-3.2 -0.6,-0.2 -1.1,-0.3 -1.7,-0.6 -1,-0.5 -2.5,-1 -2.4,-2 0.2,-1.5 0.2,-3.2 2.2,-4.1 4.4,-2 8.7,-4.2 13,-6.4 8.3,-4.1 16.5,-8.4 24.9,-12.4 8.3,-3.9 16.2,-8.7 24.9,-11.9 6.6,-2.5 12.6,-0.6 17.5,4.2 2.4,2.4 4.1,4.9 6.3,7.7 z" />
      </g>
      <g
         id="XMLID_4_">
        <path
           id="XMLID_256_"
           d="m 733,577.3 c -2.5,0 -5,-0.2 -7.5,0 -5,0.6 -6.3,-1.7 -6.1,-6.4 0.8,-23 1.3,-45.9 1.9,-68.9 0.2,-6.8 0,-6.8 -6.9,-6.8 -5.5,0 -11,0 -16.5,-0.2 -2.8,-0.1 -6,-0.1 -7.2,-3.4 -1.1,-3 1.3,-4.9 3.1,-6.8 23.3,-23.6 46.6,-47.1 69.8,-70.8 10.7,-10.9 20.8,-22.3 31.7,-32.9 9.4,-9.2 18.7,-18.5 27.9,-27.9 3.4,-3.4 5.5,-3.2 9.2,0.7 12.8,13.5 25.6,27.1 38.4,40.6 28.1,29.8 56.3,59.5 84.4,89.3 0.7,0.7 1.4,1.5 1.9,2.3 1.5,2.3 3.9,4.6 2.2,7.7 -1.5,2.8 -4.5,2.2 -7.2,2.3 -4.2,0.1 -8.3,0.6 -12.5,0.6 -4,0 -5,1.9 -4.9,5.6 0.1,22.8 0,45.6 -0.1,68.5 0,6.6 -0.1,6.8 -6.6,7 -5.2,0.2 -10.3,0 -15.5,0.2 -4.1,0.2 -5.8,-1.3 -5.3,-5.6 1.6,-16.4 3,-32.8 4.5,-49.2 1.1,-11.9 2,-23.9 3.1,-35.8 0.2,-2.2 -0.9,-3.4 -2.2,-4.8 -25.6,-26.4 -51.2,-52.8 -76.9,-79.2 -0.8,-0.8 -1.8,-1.5 -2.6,-2.4 -3.2,-3.4 -6,-3.3 -9.3,0.1 -10.4,10.6 -20.9,21 -31.4,31.5 -15,14.9 -29.8,30 -45,44.8 -3.9,3.8 -5,7.7 -4.7,12.9 1.1,16.3 1.9,32.6 2.7,48.9 0.5,11.1 0.8,22.3 1.3,33.4 0.2,3.4 -0.9,4.9 -4.4,4.6 -2.9,-0.1 -6.1,0.1 -9.3,0.1 z" />
        <path
           id="XMLID_241_"
           d="m 795.3,547.4 c 0,-7.7 -0.1,-15.3 0,-23 0.1,-9.1 5.6,-14.6 14.6,-14.8 2.7,-0.1 5.3,-0.1 8,-0.1 9.2,0 15.4,5.2 15.6,14.5 0.4,15.8 0.1,31.6 0.1,47.5 0,2.7 -1,3.7 -3.8,3.9 -9.8,0.8 -19.6,0.2 -29.5,0.4 -3.8,0.1 -5.3,-1.6 -5.2,-5.5 0.3,-7.5 0.2,-15.2 0.2,-22.9 0,0 0,0 0,0 z" />
        <path
           id="XMLID_238_"
           d="m 742.4,396.3 c 0,-6.8 0.1,-13.6 0,-20.5 -0.1,-3.4 1,-5.3 4.8,-5.2 10.3,0.1 20.6,0.1 30.9,-0.1 3.6,0 4.5,1.6 4.3,4.9 -0.2,4.9 -1.9,8.6 -5.5,12.2 -10.2,10 -20,20.4 -29.9,30.6 -1,1 -1.9,2.9 -3.5,2.4 -2,-0.7 -1.1,-2.9 -1.1,-4.4 -0.1,-6.6 0,-13.3 0,-19.9 z" />
        <path
           id="XMLID_236_"
           d="m 848.3,486.5 c 0,-4.1 -0.3,-7.4 0.1,-10.6 0.7,-6.3 6.7,-11.7 13.4,-12 4.6,-0.2 9.3,-0.3 14,0 8.8,0.4 14.5,7.2 14.2,16 -0.1,2.8 -1.1,4.4 -4.1,4.3 -0.2,0 -0.3,0 -0.5,0 -14.5,0.9 -14.5,0.9 -14.9,-13.5 0,-0.5 0,-1 0,-1.5 -0.1,-1.3 0,-3 -1.8,-3 -2,-0.1 -1.7,1.7 -1.8,2.9 -0.1,1.3 0,2.7 0,4 -0.1,12.3 1.2,11 -10.8,11.1 -2.8,-0.1 -5.5,-0.5 -7.8,2.3 z" />
        <path
           id="XMLID_235_"
           d="m 880.2,487.8 c 0.5,0 1,0 1.5,0 8.3,0 10.4,3.2 7.1,11 -1.6,3.7 -4.3,6.2 -8.1,7.6 -7.7,2.8 -10.3,1 -10.3,-7 0,-0.7 0,-1.3 0,-2 0,-9.6 0,-9.6 9.8,-9.6 z" />
        <path
           id="XMLID_234_"
           d="m 866.7,497.6 c 0,0.7 0,1.3 0,2 0,7.8 -2.9,9.6 -10.1,6.5 -3.3,-1.4 -5.9,-3.6 -7.3,-7.1 -3.3,-8.1 -1.3,-11.3 7.3,-11.3 11,0.1 10.1,-0.6 10.1,9.9 z" />
      </g>
      <g
         id="XMLID_5_">
        <path
           id="XMLID_275_"
           d="m 160.7,701.1 c -9.8,4.3 -19.6,8.7 -29.4,13.1 -1.5,0.7 -2.2,0.5 -2.9,-1.1 -6,-13.8 -12.2,-27.6 -18.3,-41.3 -0.6,-1.4 -0.6,-2.6 -0.1,-4.1 3,-7.8 6,-15.5 9,-23.3 2,-5.4 4,-10.8 6,-16.3 0,-0.1 0.1,-0.2 0.1,-0.3 1.6,-3.6 1.6,-3.6 5.4,-2.1 13.4,5.2 26.8,10.4 40.2,15.6 1.1,0.4 1.9,1.1 2.4,2.2 6.1,13.8 12.2,27.6 18.4,41.4 0.7,1.5 0.5,2.3 -1.1,3 -10,4.4 -19.8,8.8 -29.7,13.2 z m -10.4,-23.3 c 4.6,-2 9.2,-4.1 13.8,-6.1 1.4,-0.6 1.8,-1.2 1.1,-2.7 -2.7,-5.9 -5.3,-11.7 -7.8,-17.7 -0.6,-1.3 -1.2,-1.5 -2.5,-1 -9.3,4.2 -18.5,8.3 -27.8,12.3 -1.3,0.6 -1.5,1.2 -0.9,2.5 2.7,5.9 5.3,11.7 7.8,17.7 0.7,1.5 1.4,1.6 2.7,1 4.6,-2 9.1,-3.9 13.6,-6 z" />
        <path
           id="XMLID_253_"
           d="m 148.7,622 c -0.3,-1.2 -0.5,-2 -1.8,-2.2 -1.4,-0.3 -3.2,-3.1 -3.3,-5 -0.1,-1.8 1.2,-2.3 2.5,-2.8 2,-0.9 4,-1.8 5.9,-2.6 2,-0.9 3,-0.5 3.8,1.4 0.7,1.6 1.9,3.2 0.3,5.1 -0.3,0.4 0,0.9 0.2,1.3 1.2,2.8 2.4,5.7 3.7,8.5 0.3,0.7 0.8,1.2 1.5,1.5 8,3 15.9,6.1 23.9,9.2 0.4,0.2 1,0.1 1.1,0.7 0,0.6 -0.6,0.6 -1,0.7 -0.6,0.3 -1.2,0.4 -1.7,0.8 -3.9,2.7 -7.7,2 -11.9,0.4 -10,-4 -20.2,-7.6 -30.3,-11.3 -4.9,-1.8 -9.8,-3.6 -14.7,-5.5 -1.2,-0.5 -1.6,-0.2 -2.1,1 -4.4,11.1 -8.9,22.1 -13.3,33.1 -2.2,5.4 -4.3,10.8 -6.5,16.2 -0.3,0.8 -0.7,1.4 -1.5,1.7 -2.1,0.9 -4.1,1.9 -6.2,2.8 -0.4,0.2 -0.9,0.6 -1.2,0.2 -0.4,-0.4 0.1,-0.9 0.2,-1.3 3,-7.8 6,-15.6 9,-23.5 5,-12.9 9.9,-25.7 14.9,-38.6 0.6,-1.6 1.1,-2.1 2.9,-1.4 7.4,2.8 14.9,5.7 22.3,8.6 1,0.3 2.1,0.6 3.3,1 z" />
        <path
           id="XMLID_249_"
           d="m 163,703.2 c 12.5,-5.5 25,-11.1 37.5,-16.6 2.1,-0.9 2.1,-0.9 3,1.2 1.7,4 2.1,3.4 -2,5.2 -24.5,10.9 -49,21.7 -73.5,32.6 -2.6,1.1 -2.6,1.1 -3.7,-1.5 -1.6,-3.5 -1.6,-3 1.7,-4.5 12.4,-5.5 24.7,-10.9 37,-16.4 z" />
        <path
           id="XMLID_203_"
           d="m 131.5,673.5 c -1.2,-2.6 -2.3,-5.2 -3.5,-7.8 -0.5,-1 -0.3,-1.5 0.8,-2 3.6,-1.5 7.1,-3.1 10.6,-4.7 1.1,-0.5 1.8,-0.3 2.3,0.8 2.3,5.2 4.5,10.3 6.9,15.5 0.5,1.1 0.2,1.8 -0.9,2.3 -3.5,1.5 -7,3.1 -10.5,4.6 -1.2,0.5 -1.8,0.2 -2.2,-0.9 -1.1,-2.6 -2.3,-5.2 -3.5,-7.8 z" />
        <path
           id="XMLID_202_"
           d="m 160,661.2 c 1.1,2.5 2.2,5 3.4,7.5 0.5,1.1 0.4,1.7 -0.8,2.2 -3.5,1.5 -7,3.1 -10.5,4.6 -1.1,0.5 -1.8,0.4 -2.3,-0.8 -1.9,-5.2 -4.4,-10.3 -6.7,-15.4 -0.6,-1.4 -0.4,-2 1,-2.5 3.3,-1.4 6.6,-2.8 9.8,-4.4 1.4,-0.6 2,-0.3 2.6,1 1.2,2.8 2.4,5.3 3.5,7.8 0,0 0,0 0,0 z" />
      </g>
      <g
         id="XMLID_1_">
        <path
           id="XMLID_278_"
           d="m 758,145.8 c 0,3.5 0,6.9 0,10.4 0,37.7 0,75.3 0,113 0,2.9 -0.4,5.7 3.1,7.7 2.5,1.4 2.4,4.7 1.6,7.3 -0.8,2.5 -3.2,2 -5.1,2 -20,0 -40,0 -60,0.1 -4,0 -4.7,-1.8 -6.3,-5.4 -5.1,-11.4 -2,-23.1 -2.6,-34.6 -0.6,-11.8 -0.2,-23.6 -0.2,-35.5 0,-12 0,-24 0.1,-36 0,-3.2 -1.1,-4.5 -4.3,-4.5 -12.3,0.1 -24.7,0.1 -37,0 -3.1,0 -3.9,1.2 -3.9,4.2 0.1,24 -0.4,48 0.3,72 0.3,9 0,18 -0.3,26.9 -0.1,4.1 -4.2,7.1 -3.7,11.6 0.1,1 -2.2,1.1 -3.5,1.1 -26.2,0 -52.3,0 -78.5,0 -1.8,0 -4.1,0.1 -4,-2.6 0.3,-4.4 -2.5,-4.2 -5.5,-4.2 -26,0 -52,0 -78,0 -22.2,0 -44.3,0 -66.5,0 -7,0 -7,-0.1 -7,-6.9 0,-36.8 0,-73.6 0,-110.5 0,-6.9 0.1,-7 7,-7 51,0 102,0 152.9,0 6.6,0 6.7,0 7.1,-6.7 0.1,-2.6 1.5,-4.2 3.2,-5.9 21.6,-21.2 43.2,-42.4 64.8,-63.6 7.4,-7.3 14.8,-14.7 22.1,-22.2 2.8,-2.9 4.9,-3.7 8.4,-0.2 30.1,29.9 60.5,59.5 90.9,89.2 1,1.2 2.5,4.4 4.9,0.3 z m -289.6,94.3 c 13,0 26,-0.1 39,0 3.4,0 5.3,-0.8 5.2,-4.7 -0.2,-15.2 -0.1,-30.3 0,-45.5 0,-3.5 -1.4,-4.6 -4.8,-4.6 -26.2,0.1 -52.3,0.1 -78.5,0 -3.9,0 -5.3,1.3 -5.2,5.2 0.2,14.8 0.2,29.7 0,44.5 0,4 1.5,5.2 5.3,5.1 13,-0.1 26,0 39,0 z m 111.7,-41.3 c 0,7.7 0,15.3 0,23 0,3 0.9,4.6 4.3,4.6 12.5,-0.1 25,-0.1 37.5,0 3.3,0 4.8,-1.1 4.8,-4.6 -0.1,-15.1 -0.1,-30.3 0,-45.4 0,-3.4 -1.1,-4.8 -4.6,-4.7 -12.3,0.1 -24.6,0.2 -37,-0.1 -4.1,-0.1 -5.1,1.6 -5,5.4 0.1,7.1 0,14.4 0,21.8 z" />
        <path
           id="XMLID_271_"
           d="m 392.2,221.2 c 0,19.8 -0.1,39.6 0.1,59.5 0,4 -0.9,5.6 -5.2,5.6 -25.5,-0.2 -51,-0.1 -76.5,-0.1 -2.9,0 -4.4,-0.9 -4.1,-4.1 0.3,-2.2 0,-4.2 -2.6,-5.3 -1.9,-0.8 -1.2,-2.9 -1.2,-4.5 0,-31.7 0,-63.3 0,-95 0,-7.1 0,-7.2 -7.3,-7.2 -10.7,0 -21.3,0.1 -32,-0.2 -4.2,-0.1 -5.5,1.4 -5.5,5.5 0.1,31.7 -0.1,63.3 0.2,95 0,5.2 -4.1,8.8 -3.8,14 0.1,1.6 -2.2,1.7 -3.7,1.7 -21,0 -42,0 -63,0 -1.7,0 -3.6,0 -4,-2.2 -0.5,-2.6 -1,-5.8 1.7,-7.3 3.3,-1.8 3.1,-4.4 3.1,-7.2 0,-36 0.1,-72 -0.1,-108 0,-4.2 1.2,-7.1 4.2,-10.1 30.4,-29.6 60.8,-59.3 91,-89.1 3.5,-3.5 5.4,-3.7 9.1,0 26.8,26.6 54,53 81,79.4 3.4,3.4 6.9,6.8 10.3,10.2 0.7,0.7 1.4,1.8 2.2,2 7.2,1.2 5.9,6.6 5.9,11.4 0.1,18.7 0.1,37.4 0.2,56 0,0 0,0 0,0 z m -67.3,-22.5 c 0,0 0,0 0,0 0,7.3 0.2,14.7 0,22 -0.1,4.1 1.4,5.6 5.5,5.6 11.7,-0.2 23.3,-0.2 35,0 4.9,0.1 6.3,-1.8 6.2,-6.5 -0.2,-14.5 -0.2,-29 0,-43.5 0,-3.3 -1,-4.9 -4.5,-4.9 -12.5,0.1 -25,0.1 -37.5,0 -3.5,0 -4.7,1.4 -4.6,4.8 0,7.5 -0.1,15 -0.1,22.5 z" />
        <path
           id="XMLID_267_"
           d="m 606.9,69.7 c 6.4,-6.3 12.5,-12.3 18.6,-18.4 9.8,-9.8 19.8,-19.3 29.2,-29.4 3.3,-3.5 4.9,-2.4 7.5,0.2 10.9,11 21.8,22 32.8,33 18,18 36.1,36 54.1,54 9.6,9.6 19.2,19.3 28.8,29.1 0.8,0.9 2.7,1.5 1.9,3.1 -0.7,1.4 -2.4,0.8 -3.6,0.9 -5,0.6 -9.9,-0.8 -14.9,0.1 -1.6,0.3 -3.1,-0.4 -4.4,-1.8 -9.6,-10.4 -20.1,-19.9 -30.3,-29.6 -9,-8.5 -17.5,-17.7 -26.3,-26.5 C 687.8,72 675,59.9 662.6,47.5 c -3.2,-3.2 -5.4,-2.8 -8.3,0.1 -27.6,27.1 -55.2,54.1 -82.8,81.1 -1.4,1.4 -2.7,2.9 -4,4.5 -4.7,5.4 -10.5,7 -17.7,6.8 -20.3,-0.5 -40.6,-0.3 -60.9,-0.2 -34.3,0 -68.6,0 -102.9,0.4 -6.2,0.1 -8.7,-4.3 -12.1,-7.5 -11,-10.4 -21.4,-21.5 -32.4,-31.9 -16.8,-15.9 -33,-32.3 -49.4,-48.6 -2.7,-2.7 -4.3,-2.9 -7.1,-0.1 -14,14 -28.3,27.7 -42.4,41.6 -16.7,16.3 -33.7,32.4 -49.9,49.3 -3.8,4 -7.3,4.8 -12,4.7 -4.8,-0.2 -9.5,0 -14.3,0 -0.2,-2.5 1.6,-3.4 2.8,-4.7 25.8,-26 51.6,-51.9 77.4,-77.8 12.6,-12.6 25.4,-25 37.9,-37.6 2.9,-2.9 4.6,-3 7.6,0.1 15,15.4 30.3,30.5 45.5,45.6 0.7,0.7 1.4,1.3 2.6,2.4 0.4,-3.5 0.5,-5.8 -2.4,-8 -4.6,-3.5 -3,-8.9 -2.1,-13.5 0.8,-4.3 4.7,-3.9 8.1,-3.9 5.5,0 11,-0.1 16.5,0 5.1,0.1 6.8,1.8 7,7 0.1,4.4 0.9,8.9 -3.9,12 -2.3,1.5 -1.1,4.7 -1.1,7.1 -0.1,12.8 -0.1,12.8 12.9,12.8 39.2,0 78.3,0 117.5,0 28.5,0 57,0 85.4,0 6.7,0 6.7,-0.1 6.8,-6.6 0,-4 0,-8 0,-12 0,-3.3 0.3,-6.5 -3.4,-8.7 -2.1,-1.2 -2.6,-11.1 -1.1,-13.8 1.8,-3.5 5.2,-3.1 8.4,-3.1 5.5,0 11,0.2 16.5,0.1 4.5,-0.1 6.5,2.1 6.4,6.3 -0.2,4.7 1.1,9.7 -4.4,12.8 -1.6,0.4 -1.4,3 -0.4,5.5 z" />
        <path
           id="XMLID_247_"
           d="m 674.3,296 c 35.6,0 71.3,0 106.9,0 7,0 7,0 7,6.7 0,11.7 0,11.7 -12,11.7 -69.6,0 -139.2,0 -208.9,0 -7.5,0 -7.5,0 -7.5,-7.4 0,-12.8 -0.6,-10.9 11,-10.9 34.6,-0.1 69,-0.1 103.5,-0.1 z" />
        <path
           id="XMLID_246_"
           d="m 280.3,314.5 c -35.5,0 -70.9,0 -106.4,0 -7.4,0 -7.5,0 -7.4,-7.5 0.2,-12.1 -2.3,-10.8 10.8,-10.8 69.9,0 139.9,0 209.8,0 7.8,0 7.8,0 7.8,7.7 0,12 1,10.7 -10.7,10.7 -34.6,-0.1 -69.2,-0.2 -103.9,-0.1 z" />
        <path
           id="XMLID_245_"
           d="m 261.6,225.2 c 0,-15.3 0.1,-30.6 -0.1,-45.9 -0.1,-4.4 1.1,-6.4 5.9,-6.2 9,0.3 18,0.2 27,0 4,-0.1 5.6,1.4 5.6,5.6 -0.1,31.1 -0.1,62.2 0,93.4 0,4.3 -1.7,5.5 -5.7,5.4 -9,-0.2 -18,-0.2 -27,0 -4.3,0.1 -5.9,-1.4 -5.8,-5.8 0.2,-15.5 0.1,-31 0.1,-46.5 z" />
        <path
           id="XMLID_244_"
           d="m 646.7,225.2 c 0,-15.3 0.1,-30.7 -0.1,-46 -0.1,-4.6 1.5,-6.2 6.1,-6.1 9.3,0.3 18.6,0.3 28,0.3 3.2,0 4.5,1.1 4.4,4.4 -0.1,31.6 -0.1,63.3 0,94.9 0,3.4 -1.4,4.8 -4.8,4.7 -9.5,-0.1 -19,-0.2 -28.5,0 -4,0.1 -5.2,-1.6 -5.2,-5.4 0.2,-15.4 0.1,-31.1 0.1,-46.8 z" />
        <path
           id="XMLID_240_"
           d="m 476.9,314.4 c -19.5,0 -39,-0.1 -58.5,0.1 -4.7,0 -6.6,-1.5 -6.6,-6.3 0,-15 0.3,-12.2 11.5,-12.2 37.1,-0.1 74.3,0 111.4,0 7.2,0 7.3,0.1 7.3,7.2 -0.1,12.5 1.6,11.1 -11.2,11.2 -17.9,0.1 -35.9,0 -53.9,0 z" />
        <path
           id="XMLID_206_"
           d="m 507.3,213.1 c 0,6.2 -0.2,12.3 0.1,18.5 0.1,3 -0.6,4.1 -3.8,4.1 -9.5,-0.2 -19,-0.2 -28.4,0 -3.4,0.1 -4.4,-1.4 -4.3,-4.4 0.1,-12.1 0.1,-24.3 0,-36.4 0,-3.7 1.6,-4.9 5.2,-4.9 9,0.1 18,0.2 26.9,0 3.6,-0.1 4.6,1.4 4.5,4.7 -0.4,6.1 -0.2,12.3 -0.2,18.4 0,0 0,0 0,0 z" />
        <path
           id="XMLID_205_"
           d="m 429.6,212.6 c 0,-5.8 0.1,-11.6 0,-17.4 -0.1,-3.5 1.1,-5.2 4.8,-5.2 9.1,0.1 18.3,0.1 27.4,0 2.9,0 4.2,1.3 4.2,4.2 0,12.5 0,24.9 0,37.4 0,2.9 -1.1,4.1 -4.2,4.1 -9.1,-0.2 -18.3,-0.2 -27.4,0 -3.7,0.1 -5,-1.5 -4.9,-5.1 0.2,-6 0.1,-12 0.1,-18 z" />
        <path
           id="XMLID_204_"
           d="m 584.9,199.1 c 0,-6 0.1,-12 0,-18 -0.1,-3.5 1.2,-5.2 4.9,-5.1 9,0.2 18,0.1 27,0 3.7,-0.1 5.1,1.5 5.1,5 -0.1,11.8 -0.1,23.6 0,35.5 0,3.8 -1.6,5.3 -5.4,5.2 -9.2,-0.2 -18.3,-0.2 -27.5,0 -3.2,0.1 -4.1,-1.3 -4.1,-4.2 -0.1,-6.1 -0.1,-12.2 0,-18.4 -0.1,0 -0.1,0 0,0 z" />
        <path
           id="XMLID_201_"
           d="m 329.6,199.7 c 0,-6.3 0.1,-12.6 0,-19 -0.1,-3.4 1.4,-4.8 4.8,-4.7 9,0.1 18,0.1 27,0 3.3,0 4.9,1.1 4.8,4.6 -0.1,12.3 -0.1,24.6 0,36.9 0,2.9 -0.9,4.3 -4,4.2 -10,-0.1 -19.9,0 -29.9,0.1 -2.7,0 -2.8,-1.7 -2.7,-3.7 0,-6.1 0,-12.2 0,-18.4 0,0 0,0 0,0 z" />
      </g>
      <g
         id="XMLID_3_">
        <path
           id="XMLID_268_"
           d="m 28.4,519.7 c 0,-13.8 0.1,-27.7 -0.1,-41.5 0,-3.4 0.9,-5.9 3.4,-8.4 9.6,-9.5 19.1,-19.2 28.6,-28.8 21.5,-21.7 43.2,-43.2 64.6,-65 3.2,-3.3 5.3,-3.3 8.5,0 20.3,20.7 40.6,41.4 61.1,61.8 10.9,10.8 21.7,21.6 32.4,32.6 2.1,2.2 3,4.5 3,7.6 -0.1,27.8 -0.1,55.6 0,83.5 0,4.5 -1.3,6.2 -6,6.1 -20.2,-0.2 -40.3,-0.2 -60.5,0 -4.7,0 -6,-1.7 -6,-6.1 0.1,-23.5 -0.1,-47 0.2,-70.5 0,-4.9 -1.2,-6.8 -6.4,-6.7 -13.5,0.3 -27,0.3 -40.5,0 -5,-0.1 -6.1,1.8 -6.1,6.4 0.2,23.3 0.1,46.6 0.1,70 0,6.6 -0.2,6.7 -6.7,6.8 -21.2,0 -42.3,-0.1 -63.5,0.1 -4.9,0 -6.4,-1.6 -6.3,-6.4 0.4,-13.9 0.2,-27.7 0.2,-41.5 z m 127.3,-85.9 c 0.1,-15.1 -11.6,-27.4 -26,-27.2 -15.3,0.2 -27,11.8 -27.1,26.8 -0.1,15.1 11.2,26.1 26.3,26.8 13.1,0.5 28,-12.6 26.8,-26.4 z" />
        <path
           id="XMLID_251_"
           d="m 258.2,465.1 c 0,1.6 -0.9,2.5 -1.7,3.3 -2.7,2.7 -5.4,5.4 -8.1,8.2 -2.1,2.2 -3.4,0.8 -4.9,-0.7 -10.5,-10.5 -21,-20.9 -31.5,-31.4 -26,-26.1 -51.9,-52.2 -77.9,-78.3 -4.9,-4.9 -5.5,-4.4 -10.2,0.4 -12.3,12.7 -24.9,24.9 -37.3,37.4 -16.4,16.6 -33,32.9 -49.2,49.7 -7.3,7.5 -15,14.6 -22.5,22 -2.2,2.2 -3.8,2.1 -5.8,-0.1 -0.8,-0.9 -1.7,-1.6 -2.5,-2.5 -9.6,-9.8 -8.3,-6.6 0.5,-15.6 22.8,-23.3 46.1,-46.2 69.2,-69.2 14.7,-14.7 29.5,-29.3 44.2,-43.9 0.5,-0.5 1,-0.9 1.4,-1.4 8.4,-9.1 6.5,-7.9 14.8,0.4 22.9,22.8 45.7,45.6 68.5,68.5 17.1,17.1 34.1,34.1 51.2,51.2 0.7,0.6 1.3,1.4 1.8,2 z" />
        <path
           id="XMLID_248_"
           d="m 129.3,573.9 c 35.8,0 71.7,0 107.5,0 6.6,0 6.9,0.2 6.8,6.7 -0.1,12.7 1.3,11.7 -11.5,11.7 -56.8,0 -113.7,0 -170.5,0 -13.7,0 -27.3,-0.1 -41,0.1 -4,0.1 -5.5,-1.1 -5.4,-5.4 0.3,-13 0.1,-13 13.1,-13 33.6,-0.1 67.3,-0.1 101,-0.1 z" />
        <path
           id="XMLID_200_"
           d="m 141.2,431.2 c -9.7,0 -9.8,0 -9.6,-9.8 0,-3 -1.6,-7.2 1.6,-8.6 3.1,-1.4 6.2,1.6 8.9,3.4 3.2,2.2 5.6,5.2 7.2,8.7 2.2,4.8 1.3,6.2 -4.1,6.3 -1.3,0 -2.7,0 -4,0 z" />
        <path
           id="XMLID_199_"
           d="m 126.8,421.7 c 0,9.5 0,9.5 -9.6,9.5 -0.3,0 -0.7,0 -1,0 -2.7,-0.4 -6.4,1.4 -7.8,-1.6 -1.3,-2.8 1,-5.8 2.7,-8.2 2.6,-3.8 6.1,-6.5 10.5,-8.2 3.5,-1.3 5.5,-0.7 5.2,3.5 -0.1,1.6 0,3.3 0,5 z" />
        <path
           id="XMLID_198_"
           d="m 131.5,445.2 c 0,-0.7 0,-1.3 0,-2 0,-7.2 0.1,-7.2 7.1,-7.3 2,0 4,0 6,0 6.2,0.1 6.8,1.1 4.4,6.6 -2.4,5.5 -6.5,9 -12,11.2 -4.4,1.7 -5.2,1.1 -5.4,-3.5 -0.1,-1.7 -0.1,-3.3 -0.1,-5 0,0 0,0 0,0 z" />
        <path
           id="XMLID_197_"
           d="m 117.1,436 c 9.8,0 9.9,0 9.7,9.7 -0.1,2.9 1.6,7 -1.2,8.4 -3.5,1.7 -6.9,-1.4 -9.8,-3.5 -3,-2.2 -5.1,-5.2 -6.5,-8.7 -2,-4.9 -1.5,-5.8 3.8,-5.9 1.3,-0.1 2.6,0 4,0 z" />
      </g>
      <g
         id="XMLID_2_">
        <path
           id="XMLID_263_"
           d="m 13.9,296.8 c 0,-7 0,-14.1 0,-21.1 0,-1 0,-1.9 0.9,-2.7 10.4,-10.3 20.8,-20.6 31.1,-31 5.6,-5.6 11.1,-11.1 16.6,-16.8 1.5,-1.5 2.3,-0.6 3.2,0.4 7,7 14,14 21,21.1 8.6,8.7 17.2,17.4 25.9,26.1 1,1 1.4,2.2 1.4,3.6 0,13.9 0,27.8 0,41.7 0,2.3 -0.8,3 -3,3 -10,-0.1 -20,-0.1 -30.1,0 -2.1,0 -2.9,-0.7 -2.9,-2.9 0.1,-11.8 0,-23.5 0.1,-35.3 0,-2.3 -0.6,-3.2 -3.1,-3.2 -6.8,0.1 -13.6,0.1 -20.4,0 -2.2,0 -2.9,0.7 -2.9,2.9 0.1,11.9 0,23.8 0,35.7 0,1.9 -0.5,2.7 -2.5,2.7 -10.9,-0.1 -21.9,0 -32.8,0 -1.9,0 -2.6,-0.7 -2.6,-2.6 0.2,-7.2 0.2,-14.4 0.1,-21.6 0,0 0,0 0,0 z m 72,-6.3 c 0,3.1 0,6.1 0,9.2 0,1.5 0.4,2.4 2.1,2.4 5,0 10.1,0 15.1,0 1.3,0 2,-0.6 2,-2 0,-6.2 0,-12.4 0,-18.6 0,-1.4 -0.8,-2 -2,-1.9 -5,0.3 -9.9,0.2 -14.9,0 -1.6,-0.1 -2.4,0.5 -2.3,2.3 0.1,2.8 0,5.7 0,8.6 z m -61.7,0.4 c 0,2.9 0.1,5.8 0,8.7 -0.1,1.7 0.5,2.6 2.4,2.6 4.8,-0.1 9.6,-0.1 14.4,0 1.8,0 2.5,-0.7 2.5,-2.5 -0.1,-5.8 -0.1,-11.6 0,-17.4 0,-1.8 -0.6,-2.6 -2.4,-2.6 -5,0.1 -9.9,0.1 -14.9,0.1 -1.6,0 -1.9,0.9 -1.9,2.2 0,2.9 -0.1,5.9 -0.1,8.9 z" />
        <path
           id="XMLID_252_"
           d="m 63.9,218.9 c -0.8,0.2 -1.3,0.7 -1.7,1.2 -6.5,7.1 -13.8,13.3 -20.1,20.6 -2.9,3.4 -6.5,6.3 -9.7,9.5 -5.7,5.7 -11.4,11.5 -17.1,17.2 -2.7,2.7 -5.7,5.2 -8.1,8.2 -0.7,1 -1.8,1.1 -2.7,0.1 -1.1,-1.2 -2.2,-2.3 -3.3,-3.3 -1.6,-1.4 -1.5,-2.5 0.1,-4 7.5,-7.3 14.8,-14.7 22.2,-22.1 12.4,-12.4 24.8,-24.8 37.2,-37.2 3.3,-3.3 3.3,-3.2 6.5,0 19.8,19.9 39.7,39.7 59.6,59.5 1.6,1.6 1.6,2.5 0,3.8 -0.5,0.4 -0.9,0.8 -1.3,1.2 -3.3,3.2 -3.3,3.2 -6.5,0 -14.8,-14.8 -29.7,-29.6 -44.4,-44.5 -2.9,-3 -6.3,-5.6 -8.9,-8.9 -0.5,-0.6 -1.1,-1.1 -1.8,-1.3 z" />
        <path
           id="XMLID_242_"
           d="m 64,333.2 c -18.1,0 -36.3,0 -54.4,0 -1.8,0 -2.5,-0.5 -2.5,-2.4 0.1,-7.8 -0.8,-6.6 6.3,-6.6 34.6,0 69.2,0 103.8,0 3.4,0 3.4,0 3.4,3.5 0,5.3 0,5.3 -5.3,5.3 -17.1,0 -34.3,0 -51.4,0 0.1,0.1 0.1,0.2 0.1,0.2 z" />
        <path
           id="XMLID_239_"
           d="m 111.3,226.4 c 0,6 0,11.9 0,17.9 0,0.6 0.3,1.3 -0.3,1.6 -0.8,0.4 -1.1,-0.4 -1.6,-0.9 -5.1,-5.1 -10.2,-10.2 -15.3,-15.2 -1.1,-1.1 -1.6,-2.2 -1.6,-3.7 0.1,-5.6 0.1,-11.2 0,-16.9 0,-1.8 0.5,-2.7 2.5,-2.7 4.8,0.1 9.6,0.1 14.4,0 1.7,0 1.8,0.7 1.8,2.1 0,5.9 0,11.9 0.1,17.8 0,0 0,0 0,0 z" />
        <path
           id="XMLID_237_"
           d="m 101.8,190 c 3.3,0 6.6,0.1 9.9,0 1.7,0 2.5,0.5 2.4,2.2 -0.1,2.6 -0.1,5.1 0,7.7 0,1.7 -0.6,2.4 -2.3,2.4 -6.5,0 -13.1,0 -19.6,0 -1.5,0 -2.3,-0.4 -2.2,-2.1 0.1,-2.8 0.1,-5.6 0,-8.4 -0.1,-1.4 0.5,-1.7 1.7,-1.7 3.3,0 6.7,0 10.1,-0.1 0,0 0,0 0,0 z" />
        <path
           id="XMLID_196_"
           d="m 88,291 c 0,-2.5 0,-5 0,-7.5 0,-1.5 0.4,-2.3 2.1,-2.2 3.3,0.2 6.6,0.2 9.9,-0.1 2.8,-0.2 3.1,0.2 3.1,3 0,4.6 -0.1,9.1 0,13.7 0,1.7 -0.5,2.4 -2.3,2.3 -3.7,-0.1 -7.5,-0.1 -11.2,0 -1.4,0 -1.9,-0.4 -1.8,-1.8 0.3,-2.4 0.2,-4.9 0.2,-7.4 0,0 0,0 0,0 z" />
        <path
           id="XMLID_195_"
           d="m 41.6,290.9 c 0,2.4 0,4.8 0,7.2 0,1.5 -0.4,2.3 -2.1,2.2 -3.8,-0.1 -7.6,-0.1 -11.4,0 -1.3,0 -1.7,-0.3 -1.7,-1.7 0.1,-5 0.1,-9.9 0,-14.9 0,-1.8 0.7,-2.6 2.5,-2.5 3.6,0.3 7.3,0.3 10.9,0.1 1.5,-0.1 1.8,0.8 1.8,2 0,2.6 0,5.1 0,7.6 0,0 0,0 0,0 z" />
      </g>
      <g
         id="XMLID_7_">
        <path
           id="XMLID_274_"
           d="m 468.4,656.7 c 0,-17.9 0,-35.9 0,-53.8 0,-2.7 0.2,-4.4 3.6,-4.6 2.8,-0.2 4.5,-2.7 6.4,-4.6 24.1,-24.5 49.4,-47.8 73.2,-72.5 2.2,-2.2 4.6,-4.2 6.8,-6.4 2.1,-2.2 3.6,-2.1 5.8,0.1 19.2,19.1 38.5,38.1 57.9,57 8.5,8.3 17.1,16.4 25.7,24.5 2.4,2.3 2.2,5 2.2,7.8 0,22.4 0,44.7 0,67.1 0,9.9 0.1,19.9 0,29.8 0,2.2 0.3,3.9 2.2,5.3 2.3,1.6 2.9,4.2 2,6.8 -0.9,2.4 -3.2,1.7 -5,1.7 -17.8,0 -35.6,-0.1 -53.3,0.1 -3.6,0 -5.3,-1 -4.8,-4.7 0.1,-0.7 0.1,-1.9 -0.3,-2.1 -4.5,-2.9 -2.9,-7.4 -2.9,-11.3 -0.1,-26.1 -0.1,-52.1 -0.1,-78.2 0,-6.9 0,-6.9 -6.7,-6.9 -8.4,0 -16.9,0 -25.3,0 -7.8,0 -7.8,0 -7.8,7.6 0,27.4 -0.1,54.8 0.1,82.2 0,4.5 -3.8,7.5 -3.4,11.9 0.1,1.4 -2.1,1.3 -3.4,1.3 -23.1,0.1 -46.2,0 -69.3,0.2 -3.6,0 -3.6,-1.9 -3.6,-4.5 0,-18 0,-35.9 0,-53.8 0,0 0,0 0,0 z" />
        <path
           id="XMLID_260_"
           d="m 515.5,526.6 c 1.5,0 2.1,-1.2 2.9,-2 13.7,-13.7 27.5,-27.4 41.1,-41.3 1.8,-1.8 2.6,-1.1 3.8,0.1 9.1,9.1 18.2,18.2 27.3,27.3 15.8,15.8 31.6,31.6 47.4,47.4 9.8,9.8 19.7,19.7 29.5,29.6 0.7,0.7 1.8,1.4 1.4,2.6 -0.5,1.2 -1.8,0.7 -2.7,0.9 -0.3,0 -0.6,0 -0.9,0 -10.1,1.6 -17.3,-2 -24.6,-9.6 -24.8,-25.4 -50.6,-49.9 -76,-74.8 -2.6,-2.5 -4.1,-2.7 -6.7,0 -19.3,19.2 -38.8,38.2 -58.2,57.3 -8,7.8 -15.9,15.6 -23.8,23.5 -1.4,1.4 -2.9,1.8 -4.8,1.8 -50.4,0 -100.8,-0.1 -151.1,0 -3.6,0 -4.8,-1 -4.7,-4.9 0.3,-12.7 0.1,-25.5 0.2,-38.2 0,-7.1 0,-7.1 7,-7.1 55.3,0 110.5,0 165.8,0 1.5,0 3,0 4.4,0 2.1,0 3.3,-0.8 3.3,-3.2 -0.1,-4 0,-8 0,-12 0,-1.2 -0.2,-2.4 -1.5,-3 -2.8,-1.2 -3.2,-3.7 -3.4,-6.2 -0.7,-8.1 1.2,-10.2 9.2,-10.2 4.3,0 8.6,-0.1 12.9,0 5,0.1 6.5,1.6 6.5,6.4 0,3.9 1,8 -3.7,10.5 -1.6,0.9 -1,3.4 -0.6,5.1 z" />
        <path
           id="XMLID_257_"
           d="m 387.3,708.8 c -24,0 -48,0 -72,0 -1.6,0 -3.8,1 -4.6,-1.4 -0.7,-2.4 -0.5,-5.1 1.6,-6.5 2.5,-1.7 2.7,-3.5 2.8,-6.3 0.3,-16.1 -0.1,-32.2 -0.1,-48.3 -0.1,-14.6 0.4,-29.3 0.3,-43.9 0,-4 2.3,-3.7 4.9,-3.7 27,0 53.9,0 80.9,0 19.4,0 38.8,0 58.2,-0.2 4.2,-0.1 5.2,1.4 5.2,5.4 -0.1,33.5 -0.1,66.9 0,100.4 0,3.6 -1,4.9 -4.8,4.9 -24.1,-0.1 -48.3,-0.1 -72.4,-0.1 0,-0.1 0,-0.2 0,-0.3 z m 3.1,-29.9 c 11.1,0 22.2,-0.2 33.3,0.1 4.1,0.1 5.8,-1 5.8,-5.3 -0.2,-13 -0.1,-26.1 0,-39.1 0,-3.3 -1.4,-4.4 -4.6,-4.4 -23,0.1 -45.9,0.1 -68.9,0 -3.5,0 -4.7,1.2 -4.6,4.7 0.1,13 0.1,26.1 -0.1,39.1 -0.1,4 1.5,5.1 5.2,5 11.4,-0.2 22.7,-0.1 33.9,-0.1 z" />
        <path
           id="XMLID_250_"
           d="m 566.5,733.4 c -33.3,0 -66.7,0 -100,0 -3.2,0 -6.8,0.8 -7,-4.3 -0.1,-1.5 -1.7,-1.3 -2.9,-1.3 -21,0 -42,0 -63.1,0 -30.7,0 -61.3,0.1 -92,0 -2.1,0 -5.2,0.7 -6.1,-1.5 -1.3,-3.1 -0.9,-6.8 0.1,-10 0.6,-1.9 2.8,-1.1 4.4,-1.1 33,0 66.1,0 99.1,0 18.7,0 37.3,0 56,0 2.7,0 5.7,-0.6 6.2,3.7 0.3,2.3 2.8,1.7 4.5,1.7 17.6,0 35.3,0 52.9,0 49.3,0 98.7,0 148,0 1.9,0 4.8,-0.9 5.5,1.5 1,3.2 1.2,6.9 -0.2,10 -0.9,1.9 -3.5,1.2 -5.4,1.2 -30.8,0 -61.6,0 -92.4,0 -2.5,0.1 -5.1,0.1 -7.6,0.1 z" />
        <path
           id="XMLID_243_"
           d="m 551.2,660.4 c 0,-13.5 0.1,-27 -0.1,-40.4 0,-3.8 1.3,-5.3 5.1,-5.2 8.1,0.2 16.3,0.1 24.4,0 3.2,0 4.6,1.1 4.5,4.4 -0.1,27.7 -0.1,55.4 0,83.1 0,3.3 -1.2,4.8 -4.7,4.7 -7.8,-0.2 -15.7,0 -23.5,-0.1 -5.6,0 -5.8,-0.2 -5.8,-5.7 0.1,-13.6 0.1,-27.2 0.1,-40.8 z" />
        <path
           id="XMLID_194_"
           d="m 388.3,654.4 c 0,5.8 -0.1,11.5 0,17.3 0.1,2.5 -0.8,3.3 -3.3,3.3 -8.6,-0.1 -17.1,-0.1 -25.7,0 -2.2,0 -3.3,-0.6 -3.3,-2.9 0,-11.4 -0.1,-22.7 -0.2,-34.1 0,-2.3 1,-3.5 3.5,-3.5 8.7,0 17.4,0.1 26.2,-0.1 2.8,0 3.1,1.6 3.1,3.7 0,5.5 0,10.9 0,16.4 -0.1,-0.1 -0.2,-0.1 -0.3,-0.1 z" />
        <path
           id="XMLID_193_"
           d="m 425.3,654.7 c 0,5.3 -0.1,10.6 0,16 0.1,3 -1,4.3 -4.1,4.3 -8,-0.1 -16,-0.1 -24,0 -2.9,0 -4.4,-0.9 -4.4,-4.1 0.1,-10.8 0.1,-21.6 0,-32.4 0,-3.1 1.4,-4.1 4.3,-4.1 8.1,0.1 16.3,0.1 24.4,0 3,-0.1 3.8,1.1 3.8,3.9 -0.1,5.4 0,10.9 0,16.4 0,0 0,0 0,0 z" />
      </g>
    </g>
    <g
       id="Capa_1_copia"
       transform="translate(2317.8022,-34.62225)" />
    <g
       id="Capa_2"
       transform="translate(2317.8022,-34.62225)" />
    <rect
       style="opacity:0.77;fill:#000000;fill-opacity:0;stroke:#00bb7a;stroke-width:0"
       id="rect889"
       width="306.24289"
       height="241.25531"
       x="1950.1327"
       y="278.74258" />
    <rect
       style="opacity:0.77;fill:#000000;fill-opacity:0;stroke:#00bb7a;stroke-width:0"
       id="rect904"
       width="285.76736"
       height="250.15771"
       x="1969.718"
       y="284.97427" />
    <rect
       style="opacity:0.77;fill:#000000;fill-opacity:0;stroke:#00bb7a;stroke-width:0"
       id="rect906"
       width="257.27963"
       height="16.024338"
       x="2114.8274"
       y="406.04703" />
    <rect
       style="opacity:0.77;fill:#000000;fill-opacity:0;stroke:#00bb7a;stroke-width:0"
       id="rect908"
       width="1.7804819"
       height="4.4512048"
       x="2113.937"
       y="386.46173" />
    <rect
       style="opacity:0.77;fill:#000000;fill-opacity:0;stroke:#00bb7a;stroke-width:0"
       id="rect910"
       width="253.71869"
       height="230.57242"
       x="1968.8278"
       y="275.18161" />
    <rect
       style="opacity:0.77;fill:#000000;fill-opacity:0;stroke:#00bb7a;stroke-width:0"
       id="rect912"
       width="293.77942"
       height="250.15768"
       x="1951.9132"
       y="288.53525" />
    <rect
       style="opacity:0.77;fill:#000000;fill-opacity:0;stroke:#00bb7a;stroke-width:0"
       id="rect914"
       width="94.365547"
       height="28.487711"
       x="2035.5958"
       y="358.86426" />
    <rect
       style="opacity:0.77;fill:#000000;fill-opacity:0;stroke:#00bb7a;stroke-width:0"
       id="rect916"
       width="275.9747"
       height="249.26752"
       x="1979.5106"
       y="285.8645" />
    <rect
       style="opacity:0.77;fill:#000000;fill-opacity:0;stroke:#00bb7a;stroke-width:0"
       id="rect918"
       width="153.12155"
       height="129.97519"
       x="1969.718"
       y="284.97427" />
    <rect
       style="opacity:0.77;fill:#000000;fill-opacity:0;stroke:#00bb7a;stroke-width:0"
       id="rect952"
       width="611.59558"
       height="107.71916"
       x="1949.2424"
       y="82.889565" />
    <rect
       style="opacity:0.77;fill:#000000;fill-opacity:0;stroke:#00bb7a;stroke-width:0"
       id="rect954"
       width="7.1219277"
       height="16.914579"
       x="2543.9233"
       y="190.60872" />
    <rect
       style="opacity:0.77;fill:#000000;fill-opacity:0;stroke:#00bb7a;stroke-width:0"
       id="rect956"
       width="47.182774"
       height="1.7804819"
       x="2177.144"
       y="378.44955" />
    <rect
       style="opacity:0.77;fill:#000000;fill-opacity:0;stroke:#00bb7a;stroke-width:0"
       id="rect971"
       width="285.76736"
       height="250.15775"
       x="1969.718"
       y="284.97427" />
    <rect
       style="opacity:0.77;fill:#000000;fill-opacity:0;stroke:#00bb7a;stroke-width:0"
       id="rect973"
       width="285.76736"
       height="250.15775"
       x="1969.718"
       y="284.97427" />
    <rect
       style="opacity:0.77;fill:#000000;fill-opacity:0;stroke:#00bb7a;stroke-width:0"
       id="rect975"
       width="96.146027"
       height="19.585302"
       x="2082.7786"
       y="330.37656" />
    <rect
       style="opacity:0.77;fill:#00d100;fill-opacity:0;stroke:#00bb7a;stroke-width:0"
       id="rect977"
       width="295.56"
       height="241.25529"
       x="1969.718"
       y="284.97427" />
    <rect
       style="opacity:0.77;fill:#28170b;fill-opacity:0;stroke:#00bb7a;stroke-width:0"
       id="rect979"
       width="56.085182"
       height="182.49942"
       x="2372.1069"
       y="240.46223" />
    <rect
       style="opacity:0.77;fill:#de170b;fill-opacity:0;stroke:#00bb7a;stroke-width:0"
       id="rect981"
       width="300.90149"
       height="262.62109"
       x="2960.5562"
       y="273.40112" />
    <rect
       style="opacity:0.77;fill:#de170b;fill-opacity:0;stroke:#00bb7a;stroke-width:0"
       id="rect983"
       width="38.280361"
       height="44.512051"
       x="3123.4702"
       y="358.86426" />
    <rect
       style="opacity:0.77;fill:#de170b;fill-opacity:0;stroke:#00bb7a;stroke-width:0"
       id="rect985"
       width="308.02341"
       height="239.47484"
       x="2766.8428"
       y="247.42055" />
    <path
       style="opacity:0.77;fill:#de170b;fill-opacity:0;stroke:#00bb7a;stroke-width:0"
       d="m 3185.8507,509.20145 c -1.4281,-0.90395 -1.4432,-4.50061 -0.077,-18.31527 1.6833,-17.02155 6.2334,-69.31459 6.2334,-71.63858 0,-1.8774 -7.9817,-10.57985 -40.4808,-44.13629 -22.2644,-22.98878 -41.5938,-42.49675 -42.9541,-43.35102 -1.3603,-0.85428 -3.0642,-1.55535 -3.7864,-1.55793 -1.8641,-0.007 -83.4025,81.68876 -84.7297,84.89289 -0.8671,2.09334 -0.8718,6.76759 -0.022,22.30504 1.9428,35.53927 3.1562,68.70532 2.5697,70.23387 -0.4996,1.30179 -2.108,1.50196 -12.0685,1.50196 -9.3333,0 -11.7089,-0.26129 -12.6464,-1.391 -0.9407,-1.13345 -0.969,-8.50224 -0.1529,-39.79989 0.6774,-25.97773 0.7094,-38.76102 0.099,-39.49683 -0.617,-0.74347 -5.1363,-1.17842 -14.2737,-1.37375 -12.0199,-0.25695 -13.4982,-0.46041 -14.6324,-2.0139 -0.694,-0.95044 -1.2617,-2.25362 -1.2617,-2.89594 0,-1.04185 45.588,-47.90589 111.8361,-114.96639 20.3115,-20.56058 23.5263,-23.4748 25.3823,-23.00897 2.3537,0.59075 127.3426,132.25204 130.2813,137.23621 1.6808,2.8508 1.6904,3.06969 0.207,4.7088 -1.3013,1.438 -3.2519,1.80992 -11.9316,2.27508 -5.7067,0.30583 -10.8075,0.9873 -11.3351,1.51437 -0.648,0.64742 -1.0388,13.43534 -1.2047,39.41758 -0.2213,34.66598 -0.3917,38.56902 -1.728,39.57207 -1.7426,1.30797 -21.3296,1.54975 -23.3231,0.28789 z"
       id="path987" />
    <ellipse
       style="opacity:0.77;fill:#de170b;fill-opacity:0;stroke:#00bb7a;stroke-width:0"
       id="path989"
       cx="2506.0881"
       cy="401.59583"
       rx="122.40813"
       ry="72.999763" />
    <rect
       style="opacity:1;fill:#84dfc5;fill-opacity:0;stroke:#00bdd2;stroke-width:0;stroke-opacity:1;filter:url(#filter1233)"
       id="rect991"
       width="291.10876"
       height="255.49913"
       x="2951.6538"
       y="268.05969" />
    <use
       id="use1237"
       inkscape:spray-origin="#rect991"
       xlink:href="#rect991"
       x="0"
       y="0"
       width="100%"
       height="100%"
       transform="translate(-7.1276945,4.7645886)" />
    <use
       id="use1239"
       inkscape:spray-origin="#rect991"
       xlink:href="#rect991"
       x="0"
       y="0"
       width="100%"
       height="100%"
       transform="translate(-34.346795,29.028955)" />
    <use
       id="use1241"
       inkscape:spray-origin="#rect991"
       xlink:href="#rect991"
       x="0"
       y="0"
       width="100%"
       height="100%"
       transform="translate(1.3448093,45.648235)" />
    <use
       id="use1243"
       inkscape:spray-origin="#rect991"
       xlink:href="#rect991"
       x="0"
       y="0"
       width="100%"
       height="100%"
       transform="translate(-24.386795,24.111906)" />
    <use
       id="use1245"
       inkscape:spray-origin="#rect991"
       xlink:href="#rect991"
       x="0"
       y="0"
       width="100%"
       height="100%"
       transform="translate(7.5028055,30.27275)" />
    <use
       id="use1247"
       inkscape:spray-origin="#rect991"
       xlink:href="#rect991"
       x="0"
       y="0"
       width="100%"
       height="100%"
       transform="translate(-25.751795,37.236063)" />
    <use
       id="use1249"
       inkscape:spray-origin="#rect991"
       xlink:href="#rect991"
       x="0"
       y="0"
       width="100%"
       height="100%"
       transform="translate(-239.54879,2.5968393)" />
    <g
       id="g1504"
       transform="translate(2269.9605,-99.460281)" />
    <g
       id="g1506"
       transform="translate(2269.9605,-99.460281)" />
    <rect
       style="opacity:0.77;fill:#000000;fill-opacity:0;stroke:#00bb7a;stroke-width:0"
       id="rect1508"
       width="306.24289"
       height="241.25531"
       x="1902.291"
       y="213.90456" />
    <rect
       style="opacity:0.77;fill:#000000;fill-opacity:0;stroke:#00bb7a;stroke-width:0"
       id="rect1510"
       width="285.76736"
       height="250.15771"
       x="1921.8763"
       y="220.13625" />
    <rect
       style="opacity:0.77;fill:#000000;fill-opacity:0;stroke:#00bb7a;stroke-width:0"
       id="rect1512"
       width="257.27963"
       height="16.024338"
       x="2066.9858"
       y="341.20898" />
    <rect
       style="opacity:0.77;fill:#000000;fill-opacity:0;stroke:#00bb7a;stroke-width:0"
       id="rect1514"
       width="1.7804819"
       height="4.4512048"
       x="2066.0955"
       y="321.62369" />
    <rect
       style="opacity:0.77;fill:#000000;fill-opacity:0;stroke:#00bb7a;stroke-width:0"
       id="rect1516"
       width="253.71869"
       height="230.57242"
       x="1920.9861"
       y="210.34358" />
    <rect
       style="opacity:0.77;fill:#000000;fill-opacity:0;stroke:#00bb7a;stroke-width:0"
       id="rect1518"
       width="293.77942"
       height="250.15768"
       x="1904.0715"
       y="223.69722" />
    <rect
       style="opacity:0.77;fill:#000000;fill-opacity:0;stroke:#00bb7a;stroke-width:0"
       id="rect1520"
       width="94.365547"
       height="28.487711"
       x="1987.7542"
       y="294.02621" />
    <rect
       style="opacity:0.77;fill:#000000;fill-opacity:0;stroke:#00bb7a;stroke-width:0"
       id="rect1522"
       width="275.9747"
       height="249.26752"
       x="1931.6689"
       y="221.02647" />
    <rect
       style="opacity:0.77;fill:#000000;fill-opacity:0;stroke:#00bb7a;stroke-width:0"
       id="rect1524"
       width="153.12155"
       height="129.97519"
       x="1921.8763"
       y="220.13625" />
    <rect
       style="opacity:0.77;fill:#000000;fill-opacity:0;stroke:#00bb7a;stroke-width:0"
       id="rect1526"
       width="537.5177"
       height="417.49927"
       x="1286.8138"
       y="304.00079" />
    <rect
       style="opacity:0.77;fill:#000000;fill-opacity:0;stroke:#00bb7a;stroke-width:0"
       id="rect1528"
       width="7.1219277"
       height="16.914579"
       x="2496.0818"
       y="125.77069" />
    <rect
       style="opacity:0.77;fill:#000000;fill-opacity:0;stroke:#00bb7a;stroke-width:0"
       id="rect1530"
       width="47.182774"
       height="1.7804819"
       x="2129.3025"
       y="313.61151" />
    <rect
       style="opacity:0.77;fill:#000000;fill-opacity:0;stroke:#00bb7a;stroke-width:0"
       id="rect1532"
       width="285.76736"
       height="250.15775"
       x="1921.8763"
       y="220.13625" />
    <rect
       style="opacity:0.77;fill:#000000;fill-opacity:0;stroke:#00bb7a;stroke-width:0"
       id="rect1534"
       width="285.76736"
       height="250.15775"
       x="1921.8763"
       y="220.13625" />
    <rect
       style="opacity:0.77;fill:#000000;fill-opacity:0;stroke:#00bb7a;stroke-width:0"
       id="rect1536"
       width="96.146027"
       height="19.585302"
       x="2034.9369"
       y="265.53851" />
    <rect
       style="opacity:0.77;fill:#00d100;fill-opacity:0;stroke:#00bb7a;stroke-width:0"
       id="rect1538"
       width="295.56"
       height="241.25529"
       x="1732.4495"
       y="345.40079" />
    <rect
       style="opacity:0.77;fill:#28170b;fill-opacity:0;stroke:#00bb7a;stroke-width:0"
       id="rect1540"
       width="56.085182"
       height="182.49942"
       x="2324.2654"
       y="175.62421" />
    <rect
       style="opacity:0.77;fill:#de170b;fill-opacity:0;stroke:#00bb7a;stroke-width:0"
       id="rect1542"
       width="300.90149"
       height="262.62109"
       x="2912.7146"
       y="208.5631" />
    <rect
       style="opacity:0.77;fill:#de170b;fill-opacity:0;stroke:#00bb7a;stroke-width:0"
       id="rect1544"
       width="38.280361"
       height="44.512051"
       x="3075.6287"
       y="294.02621" />
    <rect
       style="opacity:0.77;fill:#de170b;fill-opacity:0;stroke:#00bb7a;stroke-width:0"
       id="rect1546"
       width="308.02341"
       height="239.47484"
       x="2904.7024"
       y="216.57527" />
    <path
       style="opacity:0.77;fill:#de170b;fill-opacity:0;stroke:#00bb7a;stroke-width:0"
       d="m 3138.009,444.36342 c -1.4281,-0.90395 -1.4432,-4.50061 -0.077,-18.31527 1.6833,-17.02155 6.2334,-69.31459 6.2334,-71.63858 0,-1.8774 -7.9817,-10.57985 -40.4808,-44.13629 -22.2644,-22.98878 -41.5938,-42.49675 -42.9541,-43.35102 -1.3603,-0.85428 -3.0642,-1.55535 -3.7864,-1.55793 -1.8641,-0.007 -83.4025,81.68876 -84.7297,84.89289 -0.8671,2.09334 -0.8718,6.76759 -0.022,22.30504 1.9428,35.53927 3.1562,68.70532 2.5697,70.23387 -0.4996,1.30179 -2.108,1.50196 -12.0685,1.50196 -9.3333,0 -11.7089,-0.26129 -12.6464,-1.391 -0.9407,-1.13345 -0.969,-8.50224 -0.1529,-39.79989 0.6774,-25.97773 0.7094,-38.76102 0.099,-39.49683 -0.617,-0.74347 -5.1363,-1.17842 -14.2737,-1.37375 -12.0199,-0.25695 -13.4982,-0.46041 -14.6324,-2.0139 -0.694,-0.95044 -1.2617,-2.25362 -1.2617,-2.89594 0,-1.04185 45.588,-47.90589 111.8361,-114.96639 20.3115,-20.56058 23.5263,-23.4748 25.3823,-23.00897 2.3537,0.59075 127.3426,132.25204 130.2813,137.23621 1.6808,2.8508 1.6904,3.06969 0.207,4.7088 -1.3013,1.438 -3.2519,1.80992 -11.9316,2.27508 -5.7067,0.30583 -10.8075,0.9873 -11.3351,1.51437 -0.648,0.64742 -1.0388,13.43534 -1.2047,39.41758 -0.2213,34.66598 -0.3917,38.56902 -1.728,39.57207 -1.7426,1.30797 -21.3296,1.54975 -23.3231,0.28789 z"
       id="path1548" />
    <ellipse
       style="opacity:0.77;fill:#de170b;fill-opacity:0;stroke:#00bb7a;stroke-width:0"
       id="ellipse1550"
       cx="2458.2466"
       cy="336.75778"
       rx="122.40813"
       ry="72.999763" />
    <rect
       style="opacity:1;fill:#84dfc5;fill-opacity:0;stroke:#00bdd2;stroke-width:0;stroke-opacity:1;filter:url(#filter1233)"
       id="rect1552"
       width="291.10876"
       height="255.49913"
       x="2903.8123"
       y="203.22166" />
    <use
       id="use1554"
       inkscape:spray-origin="#rect991"
       xlink:href="#rect991"
       x="0"
       y="0"
       width="100%"
       height="100%"
       transform="translate(-54.969348,-60.073442)" />
    <use
       id="use1556"
       inkscape:spray-origin="#rect991"
       xlink:href="#rect991"
       x="0"
       y="0"
       width="100%"
       height="100%"
       transform="translate(-82.188449,-35.809076)" />
    <use
       id="use1558"
       inkscape:spray-origin="#rect991"
       xlink:href="#rect991"
       x="0"
       y="0"
       width="100%"
       height="100%"
       transform="translate(-59.716249,-44.369614)" />
    <use
       id="use1560"
       inkscape:spray-origin="#rect991"
       xlink:href="#rect991"
       x="0"
       y="0"
       width="100%"
       height="100%"
       transform="translate(-72.228449,-40.726125)" />
    <use
       id="use1562"
       inkscape:spray-origin="#rect991"
       xlink:href="#rect991"
       x="0"
       y="0"
       width="100%"
       height="100%"
       transform="translate(-40.338848,-34.565281)" />
    <use
       id="use1564"
       inkscape:spray-origin="#rect991"
       xlink:href="#rect991"
       x="0"
       y="0"
       width="100%"
       height="100%"
       transform="translate(-73.593449,-27.601968)" />
    <use
       id="use1566"
       inkscape:spray-origin="#rect991"
       xlink:href="#rect991"
       x="0"
       y="0"
       width="100%"
       height="100%"
       transform="translate(-65.178549,-37.061374)" />
    <rect
       style="opacity:1;fill:#ffffff;fill-opacity:1;stroke:#00bdd2;stroke-width:0;stroke-opacity:1"
       id="rect1568"
       width="728.78595"
       height="589.96802"
       x="2187.4075"
       y="160.65199"
       transform="matrix(0.99968757,0.0249954,-0.02469493,0.99969503,0,0)" />
    <rect
       style="opacity:1;fill:#ffffff;fill-opacity:1;stroke:#00bdd2;stroke-width:0;stroke-opacity:1"
       id="rect1572"
       width="1111.2587"
       height="373.55829"
       x="2132.8489"
       y="-59.850349" />
  </g>
</svg>
